<?xml version="1.0" encoding="UTF-8"?>
<svg version="1.1" xmlns="http://www.w3.org/2000/svg" width="878" height="284">
<path d="M0 0 C5.72491109 0.55071852 10.72865329 1.66034128 16.125 3.625 C17.22859863 4.02368286 17.22859863 4.02368286 18.35449219 4.43041992 C35.03140988 10.61498683 49.17712486 19.67916239 62 32 C63.23169922 33.15435547 63.23169922 33.15435547 64.48828125 34.33203125 C75.35157484 44.78985199 88.65873156 59.81373766 92 75 C92.66 75 93.32 75 94 75 C94.2475 74.15566406 94.495 73.31132812 94.75 72.44140625 C96.12032683 68.6687252 97.92391566 65.35121677 100 61.9375 C100.39155273 61.28918213 100.78310547 60.64086426 101.18652344 59.97290039 C105.3187069 53.26912687 110.03497534 47.10763796 115 41 C115.44150391 40.43812988 115.88300781 39.87625977 116.33789062 39.29736328 C117.51316651 37.82740805 118.75224748 36.40895545 120 35 C120.66 35 121.32 35 122 35 C122.23074219 34.42636719 122.46148437 33.85273438 122.69921875 33.26171875 C131.71997891 17.5769736 157.13599956 7.32582447 173.75 1.9375 C174.73286987 1.61313965 174.73286987 1.61313965 175.7355957 1.28222656 C179.59367885 0.11399396 182.12309782 0.07710534 186 1 C186.02312484 10.50074325 186.0409158 20.00147688 186.05181217 29.50224209 C186.05704069 33.91337004 186.06413777 38.3244788 186.07543945 42.7355957 C186.08626944 46.98901115 186.09227707 51.24240809 186.09487724 55.49583626 C186.09673129 57.12221633 186.10035152 58.74859534 186.10573006 60.37496758 C186.11294198 62.64510193 186.11399088 64.91515885 186.11352539 67.18530273 C186.115746 68.47991928 186.11796661 69.77453583 186.12025452 71.10838318 C186 74 186 74 185 75 C183.24001906 75.29827304 181.47065803 75.54148576 179.69921875 75.76171875 C147.31636649 80.01064911 118.31797224 89.03853978 96 114 C95.67 114.66 95.34 115.32 95 116 C93.68 116 92.36 116 91 116 C89.68359375 114.56640625 89.68359375 114.56640625 88.4375 112.5625 C74.05518033 92.17556187 44.57212385 81.8192063 20.84130859 77.63964844 C14.8311076 76.63941061 8.83474439 75.84043983 2.76757812 75.27246094 C1 75 1 75 0 74 C-0.12933367 71.80807538 -0.18859284 69.61199885 -0.22119141 67.41650391 C-0.2326973 66.72867325 -0.24420319 66.04084259 -0.25605774 65.33216858 C-0.29288817 63.0470127 -0.32244958 60.76182883 -0.3515625 58.4765625 C-0.37466813 56.89333694 -0.39805836 55.31011551 -0.42172241 53.72689819 C-0.47024996 50.402929 -0.51516746 47.07893501 -0.55761719 43.75488281 C-0.61236573 39.49191158 -0.67620763 35.2291342 -0.74279213 30.96633339 C-0.79285908 27.69447592 -0.83798859 24.42256457 -0.88163376 21.15061569 C-0.90321649 19.57889989 -0.92636641 18.00720481 -0.9510994 16.43553543 C-0.98496291 14.23781728 -1.01216081 12.04011481 -1.03759766 9.84228516 C-1.05456696 8.59065582 -1.07153625 7.33902649 -1.08901978 6.04946899 C-1 3 -1 3 0 0 Z " fill="#FFFFFF" transform="translate(346,142)"/>
<path d="M0 0 C0.33 20.13 0.66 40.26 1 61 C9.25 61.66 17.5 62.32 26 63 C52.00185662 67.78981569 75.89202396 77.06000616 95 96 C95.99 97.485 95.99 97.485 97 99 C99.66003418 97.95498657 100.9348984 97.08579515 102.68359375 94.78125 C114.41901936 80.6908233 133.75224291 71.82554977 151 67 C151.64630371 66.81453613 152.29260742 66.62907227 152.95849609 66.43798828 C166.96087321 62.50550808 181.47167988 60.96170429 196 61 C196.01030746 60.23800797 196.02061493 59.47601593 196.03123474 58.69093323 C196.1290441 51.5244026 196.2315344 44.35796173 196.33933926 37.19157505 C196.39460165 33.5068981 196.44802679 29.82221327 196.49731445 26.13745117 C196.54490932 22.58422159 196.59725007 19.03109125 196.65294075 15.47797966 C196.6733865 14.11957189 196.69209585 12.76113688 196.70907402 11.40268135 C196.73306877 9.50610295 196.76370332 7.60961201 196.79467773 5.71313477 C196.81022202 4.63169693 196.8257663 3.55025909 196.84178162 2.43605042 C197 0 197 0 198 -1 C199.51928038 -1.07179964 201.04167482 -1.08392007 202.5625 -1.0625 C203.38878906 -1.05347656 204.21507812 -1.04445312 205.06640625 -1.03515625 C205.70449219 -1.02355469 206.34257813 -1.01195312 207 -1 C208.20272819 1.40545638 208.10071472 2.94996953 208.0625 5.625 C208.05347656 6.44226563 208.04445313 7.25953125 208.03515625 8.1015625 C208.01775391 9.04128906 208.01775391 9.04128906 208 10 C209.918125 9.938125 209.918125 9.938125 211.875 9.875 C217.05600773 9.86677618 222.00140935 10.64125611 227 12 C228.71987206 13.71987206 228.11974788 15.90877029 228.12442017 18.20132446 C228.12082489 18.94578827 228.11722961 19.69025208 228.11352539 20.45727539 C228.11367142 21.23770706 228.11381744 22.01813873 228.1139679 22.82221985 C228.11326858 25.4140598 228.10547536 28.00582878 228.09765625 30.59765625 C228.09579213 32.3898464 228.0943682 34.18203706 228.09336853 35.97422791 C228.08954284 40.70070797 228.07971212 45.42715752 228.06866455 50.15362549 C228.05845153 54.9728555 228.05387115 59.79209042 228.04882812 64.61132812 C228.03808989 74.07423219 228.02101286 83.53711356 228 93 C223.43126391 93.03479848 219.19337185 92.83124775 214.6875 92.0625 C179.72191475 86.13984754 135.38323547 87.63855386 105.19775391 108.14160156 C102.23974407 110.06620671 100.40759223 111.00957262 96.83984375 110.92578125 C94.02094986 110.0068296 91.95502521 108.95926867 89.5 107.3125 C57.57386275 87.45368248 14.3871667 86.10388619 -21.56420898 92.72460938 C-25.0496255 93.1186707 -28.49236445 93.01569045 -32 93 C-32.15375941 82.88195862 -32.30194094 72.7638525 -32.4429636 62.64562511 C-32.50861919 57.94754241 -32.57620991 53.24950402 -32.64819336 48.55151367 C-32.7175654 44.01934143 -32.78189313 39.4871233 -32.84269524 34.95482826 C-32.86680673 33.22401636 -32.89274862 31.49322897 -32.92053413 29.76247215 C-32.95908349 27.34193124 -32.99117672 24.92138562 -33.02172852 22.50073242 C-33.03467453 21.78216064 -33.04762054 21.06358887 -33.06095886 20.32324219 C-33.09371348 17.25028266 -32.98087384 14.94262153 -32 12 C-25.19348989 10.37802312 -18.99742731 9.80007351 -12 10 C-12 6.7 -12 3.4 -12 0 C-10 -1 -10 -1 0 0 Z " fill="#FFFFFF" transform="translate(341,163)"/>
<path d="M0 0 C0 23.76 0 47.52 0 72 C-11.88 73.485 -11.88 73.485 -24 75 C-29.44178942 76.42110424 -34.75831174 77.8445451 -40.12109375 79.46728516 C-45.22448292 80.914218 -50.4970505 81.61327819 -55.73046875 82.421875 C-56.47941406 82.61265625 -57.22835937 82.8034375 -58 83 C-58.33 83.66 -58.66 84.32 -59 85 C-60.32 84.67 -61.64 84.34 -63 84 C-63 85.32 -63 86.64 -63 88 C-64.8253125 88.556875 -64.8253125 88.556875 -66.6875 89.125 C-69.92348472 90.30847851 -71.70860179 91.45759527 -73.8125 94.1875 C-74.534375 95.115625 -75.25625 96.04375 -76 97 C-76.99 97 -77.98 97 -79 97 C-79 96.34 -79 95.68 -79 95 C-79.66 95 -80.32 95 -81 95 C-82.32134971 92.77567782 -83.63211206 90.54616381 -84.9375 88.3125 C-85.31068359 87.68666016 -85.68386719 87.06082031 -86.06835938 86.41601562 C-88.07941211 82.95555551 -89.51275665 80.04489324 -90 76 C-88.515 75.505 -88.515 75.505 -87 75 C-86.9175 73.700625 -86.835 72.40125 -86.75 71.0625 C-85.07684091 56.90669351 -73.5733181 43.04672394 -64 33 C-61.73075484 31.37325196 -59.51403391 30.25701695 -57 29 C-56.195625 28.113125 -55.39125 27.22625 -54.5625 26.3125 C-51.03775828 23.13163552 -48.67155402 23.23753665 -44 23 C-43.67 21.35 -43.34 19.7 -43 18 C-40.69 17.67 -38.38 17.34 -36 17 C-36 16.34 -36 15.68 -36 15 C-36.66 14.67 -37.32 14.34 -38 14 C-29.46840251 9.07700537 -21.53838513 5.16172366 -11.92578125 2.7890625 C-9.06738286 2.13396871 -9.06738286 2.13396871 -6.91796875 0.8984375 C-5 0 -5 0 0 0 Z " fill="#FFFFFF" transform="translate(530,144)"/>
<path d="M0 0 C2.64 0 5.28 0 8 0 C8.495 4.95 8.495 4.95 9 10 C10.68029297 10.09087891 10.68029297 10.09087891 12.39453125 10.18359375 C13.86719984 10.26801424 15.33985544 10.35266149 16.8125 10.4375 C17.55048828 10.47681641 18.28847656 10.51613281 19.04882812 10.55664062 C22.23071342 10.74381035 24.96162378 10.98720793 28 12 C28 37.74 28 63.48 28 90 C21 89 21 89 17.64599609 88.48461914 C7.94420065 87.06449733 -1.58546897 86.61246831 -11.375 86.4375 C-13.61791138 86.39344109 -15.86068813 86.3469467 -18.10342407 86.29469299 C-20.10056467 86.24863895 -22.09789129 86.21086903 -24.09521484 86.17358398 C-27 86 -27 86 -28 85 C-31.7899087 84.77260548 -34.77920141 84.93576768 -38.4375 86 C-42.56072188 87.15739562 -45.73665972 87.14452001 -50 87 C-52.32357511 86.81509993 -52.32357511 86.81509993 -55 89 C-58.61556067 90.09741733 -62.31377366 90.86233071 -66 91.6875 C-67.010625 91.92533203 -68.02125 92.16316406 -69.0625 92.40820312 C-70.5165625 92.73788086 -70.5165625 92.73788086 -72 93.07421875 C-73.3303125 93.37718872 -73.3303125 93.37718872 -74.6875 93.6862793 C-77 94 -77 94 -80 93 C-80.33 92.67 -80.66 92.34 -81 92 C-81 93.32 -81 94.64 -81 96 C-82.43294498 96.84114171 -83.87154405 97.67265687 -85.3125 98.5 C-86.51326172 99.19609375 -86.51326172 99.19609375 -87.73828125 99.90625 C-90 101 -90 101 -93 101 C-92.625 99.0625 -92.625 99.0625 -92 97 C-91.01 96.505 -91.01 96.505 -90 96 C-88.8469962 94.8469962 -87.69581434 93.6921034 -86.5546875 92.52734375 C-83.50656163 89.53282813 -80.24576801 86.7764207 -77 84 C-76.113125 83.236875 -75.22625 82.47375 -74.3125 81.6875 C-72 80 -72 80 -69.6875 79.125 C-67.07723224 78.03232977 -65.54701295 76.89446065 -63.375 75.125 C-54.95119892 68.74475067 -46.40307666 67.53377076 -36.10595703 67.3269043 C-31.26582275 67.21660947 -31.26582275 67.21660947 -27 65 C-25.989375 64.835 -24.97875 64.67 -23.9375 64.5 C-20.88644627 64.27206546 -20.88644627 64.27206546 -19 62 C-12.73 62 -6.46 62 0 62 C0 41.54 0 21.08 0 0 Z " fill="#FFFFFF" transform="translate(539,164)"/>
<path d="M0 0 C1.23556641 0.01740234 1.23556641 0.01740234 2.49609375 0.03515625 C3.32238281 0.04417969 4.14867187 0.05320313 5 0.0625 C5.63808594 0.07410156 6.27617188 0.08570313 6.93359375 0.09765625 C8.13632194 2.50311263 8.03430847 4.04762578 7.99609375 6.72265625 C7.98707031 7.53992188 7.97804688 8.3571875 7.96875 9.19921875 C7.95134766 10.13894531 7.95134766 10.13894531 7.93359375 11.09765625 C9.85171875 11.03578125 9.85171875 11.03578125 11.80859375 10.97265625 C16.98960148 10.96443243 21.9350031 11.73891236 26.93359375 13.09765625 C28.65346581 14.81752831 28.05334163 17.00642654 28.05801392 19.29898071 C28.05441864 20.04344452 28.05082336 20.78790833 28.04711914 21.55493164 C28.04726517 22.33536331 28.04741119 23.11579498 28.04756165 23.9198761 C28.04686233 26.51171605 28.03906911 29.10348503 28.03125 31.6953125 C28.02938588 33.48750265 28.02796195 35.27969331 28.02696228 37.07188416 C28.02313659 41.79836422 28.01330587 46.52481377 28.0022583 51.25128174 C27.99204528 56.07051175 27.9874649 60.88974667 27.98242188 65.70898438 C27.97168364 75.17188844 27.95460661 84.63476981 27.93359375 94.09765625 C23.36485766 94.13245473 19.1269656 93.928904 14.62109375 93.16015625 C-20.3444915 87.23750379 -64.68317078 88.73621011 -94.86865234 109.23925781 C-97.82666218 111.16386296 -99.65881402 112.10722887 -103.2265625 112.0234375 C-106.04545639 111.10448585 -108.11138104 110.05692492 -110.56640625 108.41015625 C-123.59481671 100.30617474 -138.89998872 95.32942339 -154.06640625 93.09765625 C-154.06640625 92.76765625 -154.06640625 92.43765625 -154.06640625 92.09765625 C-147.53256327 91.85196533 -141.64171606 92.774499 -135.25390625 94.09765625 C-133.39371316 94.47504978 -131.53305382 94.85015441 -129.671875 95.22265625 C-128.85871826 95.39023437 -128.04556152 95.5578125 -127.20776367 95.73046875 C-124.93570069 96.18215999 -124.93570069 96.18215999 -122.06640625 96.09765625 C-121.73640625 96.75765625 -121.40640625 97.41765625 -121.06640625 98.09765625 C-119.0417737 98.74978917 -119.0417737 98.74978917 -117.06640625 99.09765625 C-117.06640625 98.10765625 -117.06640625 97.11765625 -117.06640625 96.09765625 C-116.07640625 96.09765625 -115.08640625 96.09765625 -114.06640625 96.09765625 C-115.8115809 90.7453548 -117.3538447 88.33319815 -122.30664062 85.63867188 C-123.27053711 85.15430664 -123.27053711 85.15430664 -124.25390625 84.66015625 C-124.90810547 84.31017578 -125.56230469 83.96019531 -126.23632812 83.59960938 C-127.83653845 82.74694256 -129.45021503 81.91962933 -131.06640625 81.09765625 C-131.06640625 80.43765625 -131.06640625 79.77765625 -131.06640625 79.09765625 C-120.64605153 82.11849115 -109.10715641 91.03653102 -103.06640625 100.09765625 C-100.40637207 99.05264282 -99.13150785 98.1834514 -97.3828125 95.87890625 C-85.66608265 81.81092707 -66.30609234 72.87986893 -49.06640625 68.09765625 C-48.36161133 67.90155762 -47.65681641 67.70545898 -46.93066406 67.50341797 C-38.25471459 65.14862742 -30.12842988 63.39304966 -21.06640625 64.09765625 C-21.06640625 65.08765625 -21.06640625 66.07765625 -21.06640625 67.09765625 C-22.92265625 67.28328125 -22.92265625 67.28328125 -24.81640625 67.47265625 C-27.16909323 67.70792495 -28.77549392 67.93004451 -30.8359375 69.1171875 C-34.13449269 70.56716535 -37.46055649 70.35158524 -41.00390625 70.41015625 C-51.5294346 70.82175019 -60.90390723 73.30615596 -68.640625 80.8125 C-70.56173659 82.54413209 -72.64296213 83.26676112 -75.06640625 84.09765625 C-75.72640625 84.75765625 -76.38640625 85.41765625 -77.06640625 86.09765625 C-81.7722886 90.09765625 -81.7722886 90.09765625 -84.06640625 90.09765625 C-84.56140625 92.07765625 -84.56140625 92.07765625 -85.06640625 94.09765625 C-85.72640625 94.09765625 -86.38640625 94.09765625 -87.06640625 94.09765625 C-89.15578011 95.99708703 -90.79861068 97.56206512 -92.06640625 100.09765625 C-93.05640625 99.60265625 -93.05640625 99.60265625 -94.06640625 99.09765625 C-94.56140625 101.07765625 -94.56140625 101.07765625 -95.06640625 103.09765625 C-94.36773437 102.73671875 -93.6690625 102.37578125 -92.94921875 102.00390625 C-91.58410156 101.3078125 -91.58410156 101.3078125 -90.19140625 100.59765625 C-88.83402344 99.9015625 -88.83402344 99.9015625 -87.44921875 99.19140625 C-85.06640625 98.09765625 -85.06640625 98.09765625 -83.06640625 98.09765625 C-83.06640625 96.77765625 -83.06640625 95.45765625 -83.06640625 94.09765625 C-82.51082031 94.28102539 -81.95523438 94.46439453 -81.3828125 94.65332031 C-76.90011168 95.51319758 -72.44356885 93.87125629 -68.06640625 92.84765625 C-67.06867188 92.62980469 -66.0709375 92.41195312 -65.04296875 92.1875 C-64.08132813 91.96707031 -63.1196875 91.74664062 -62.12890625 91.51953125 C-61.25363281 91.3194043 -60.37835938 91.11927734 -59.4765625 90.91308594 C-56.87578109 90.03316192 -55.15970919 88.8521938 -53.06640625 87.09765625 C-52.73640625 87.42765625 -52.40640625 87.75765625 -52.06640625 88.09765625 C-46.5057343 88.38527721 -42.43775702 87.66023102 -37.06640625 86.09765625 C-33.19140625 85.91015625 -33.19140625 85.91015625 -30.06640625 86.09765625 C-29.73640625 86.42765625 -29.40640625 86.75765625 -29.06640625 87.09765625 C-26.80593164 87.23273756 -24.54145639 87.30148467 -22.27734375 87.34375 C-20.84504805 87.37677873 -19.41275652 87.40998837 -17.98046875 87.44335938 C-15.73441629 87.4900916 -13.48836752 87.53431691 -11.2421875 87.57446289 C1.4651102 87.81258214 13.62991399 88.58231918 25.93359375 92.09765625 C25.93359375 66.35765625 25.93359375 40.61765625 25.93359375 14.09765625 C19.66359375 13.76765625 13.39359375 13.43765625 6.93359375 13.09765625 C5.93359375 12.09765625 5.93359375 12.09765625 5.8359375 9.8125 C5.85333984 8.43771484 5.85333984 8.43771484 5.87109375 7.03515625 C5.88011719 6.11605469 5.88914062 5.19695312 5.8984375 4.25 C5.91583984 3.18458984 5.91583984 3.18458984 5.93359375 2.09765625 C3.29359375 2.09765625 0.65359375 2.09765625 -2.06640625 2.09765625 C-2.06640625 22.55765625 -2.06640625 43.01765625 -2.06640625 64.09765625 C-8.00640625 64.09765625 -13.94640625 64.09765625 -20.06640625 64.09765625 C-20.06640625 63.76765625 -20.06640625 63.43765625 -20.06640625 63.09765625 C-12.14640625 62.60265625 -12.14640625 62.60265625 -4.06640625 62.09765625 C-4.0413501 60.25502197 -4.01629395 58.4123877 -3.99047852 56.51391602 C-3.90672323 50.43895809 -3.81845169 44.36407907 -3.72706699 38.2892313 C-3.6718046 34.60455435 -3.61837946 30.91986952 -3.5690918 27.23510742 C-3.52149693 23.68187784 -3.46915618 20.1287475 -3.4134655 16.57563591 C-3.39301975 15.21722814 -3.3743104 13.85879313 -3.35733223 12.5003376 C-3.33333748 10.6037592 -3.30270293 8.70726826 -3.27172852 6.81079102 C-3.25618423 5.72935318 -3.24063995 4.64791534 -3.22462463 3.53370667 C-3.00433641 0.14198187 -3.00433641 0.14198187 0 0 Z " fill="#FFFFFF" transform="translate(541.06640625,161.90234375)"/>
<path d="M0 0 C0.02312484 9.50074325 0.0409158 19.00147688 0.05181217 28.50224209 C0.05704069 32.91337004 0.06413777 37.3244788 0.07543945 41.7355957 C0.08626944 45.98901115 0.09227707 50.24240809 0.09487724 54.49583626 C0.09673129 56.12221633 0.10035152 57.74859534 0.10573006 59.37496758 C0.11294198 61.64510193 0.11399088 63.91515885 0.11352539 66.18530273 C0.115746 67.47991928 0.11796661 68.77453583 0.12025452 70.10838318 C0 73 0 73 -1 74 C-2.75998094 74.29827304 -4.52934197 74.54148576 -6.30078125 74.76171875 C-38.68363351 79.01064911 -67.68202776 88.03853978 -90 113 C-90.33 113.66 -90.66 114.32 -91 115 C-92.32 115 -93.64 115 -95 115 C-96.31640625 113.56640625 -96.31640625 113.56640625 -97.5625 111.5625 C-106.99001083 98.1990034 -122.93871625 90.55744299 -137.6640625 84.4453125 C-141 83 -141 83 -144 81 C-138.73086928 81.47901188 -134.17068295 82.4694977 -129.1875 84.234375 C-126.15928963 85.29424863 -123.09153091 86.1448957 -120 87 C-120 87.66 -120 88.32 -120 89 C-118.35 89.33 -116.7 89.66 -115 90 C-115 90.66 -115 91.32 -115 92 C-113.35 92.33 -111.7 92.66 -110 93 C-110 94.65 -110 96.3 -110 98 C-108.68 98 -107.36 98 -106 98 C-103.6155518 95.51533817 -102.01112335 92.44907269 -100.25 89.5 C-99.74339844 88.70851563 -99.23679687 87.91703125 -98.71484375 87.1015625 C-95.47118131 81.76831698 -94.39960259 78.23269692 -95 72 C-94.67 72.66 -94.34 73.32 -94 74 C-93.34 74 -92.68 74 -92 74 C-91.731875 73.113125 -91.46375 72.22625 -91.1875 71.3125 C-90.08289181 68.23122452 -88.77150856 65.73778595 -87 63 C-85.56262131 65.87475738 -86.47180216 67.50650357 -87.3125 70.5625 C-87.57675781 71.55378906 -87.84101563 72.54507813 -88.11328125 73.56640625 C-89 76 -89 76 -91 77 C-90.4218718 81.40517402 -88.7511938 84.42482624 -86.4375 88.1875 C-83 93.79678068 -83 93.79678068 -83 96 C-82.34 96 -81.68 96 -81 96 C-81 96.66 -81 97.32 -81 98 C-80.34773438 97.43410156 -79.69546875 96.86820312 -79.0234375 96.28515625 C-78.14945312 95.55167969 -77.27546875 94.81820312 -76.375 94.0625 C-75.51648438 93.33160156 -74.65796875 92.60070312 -73.7734375 91.84765625 C-70.75037959 89.83370358 -68.58340465 89.33101832 -65 89 C-65 87.68 -65 86.36 -65 85 C-64.360625 84.896875 -63.72125 84.79375 -63.0625 84.6875 C-60.54347847 84.12200537 -58.29717439 83.42352429 -55.875 82.5625 C-52.53009353 81.4163047 -49.30025977 80.63780058 -45.8125 80.0625 C-41.46261615 79.34055275 -37.34752105 78.27003685 -33.125 77 C-22.47594143 73.88093148 -13.1662785 73 -2 73 C-2 49.24 -2 25.48 -2 1 C-4.97 1.99 -7.94 2.98 -11 4 C-13.22608948 4.59496842 -15.4551136 5.17911228 -17.6875 5.75 C-25.33342315 7.88452162 -32.05318376 11.24154015 -39 15 C-38.505 16.485 -38.505 16.485 -38 18 C-40.31 18.33 -42.62 18.66 -45 19 C-45.495 21.475 -45.495 21.475 -46 24 C-46.556875 24.13535156 -47.11375 24.27070313 -47.6875 24.41015625 C-54.17270986 26.2395989 -58.25391536 29.27977959 -63 34 C-63 31 -63 31 -60.6484375 28.6171875 C-59.5675092 27.69106467 -58.47547492 26.7778092 -57.375 25.875 C-56.78960449 25.38999023 -56.20420898 24.90498047 -55.60107422 24.40527344 C-42.60677401 13.84805268 -28.28590645 6.17552835 -12.375 1 C-11.38040771 0.66983887 -11.38040771 0.66983887 -10.36572266 0.33300781 C-6.46530142 -0.86081504 -3.9230176 -0.93944403 0 0 Z " fill="#FFFFFF" transform="translate(532,143)"/>
<path d="M0 0 C1.23556641 0.01740234 1.23556641 0.01740234 2.49609375 0.03515625 C3.32238281 0.04417969 4.14867187 0.05320313 5 0.0625 C5.63808594 0.07410156 6.27617188 0.08570313 6.93359375 0.09765625 C8.13632194 2.50311263 8.03430847 4.04762578 7.99609375 6.72265625 C7.98707031 7.53992188 7.97804688 8.3571875 7.96875 9.19921875 C7.95714844 9.82570312 7.94554687 10.4521875 7.93359375 11.09765625 C9.85171875 11.03578125 9.85171875 11.03578125 11.80859375 10.97265625 C16.98960148 10.96443243 21.9350031 11.73891236 26.93359375 13.09765625 C28.65346581 14.81752831 28.05334163 17.00642654 28.05801392 19.29898071 C28.052621 20.41567642 28.052621 20.41567642 28.04711914 21.55493164 C28.04726517 22.33536331 28.04741119 23.11579498 28.04756165 23.9198761 C28.04686233 26.51171605 28.03906911 29.10348503 28.03125 31.6953125 C28.02938588 33.48750265 28.02796195 35.27969331 28.02696228 37.07188416 C28.02313659 41.79836422 28.01330587 46.52481377 28.0022583 51.25128174 C27.99204528 56.07051175 27.9874649 60.88974667 27.98242188 65.70898438 C27.97168364 75.17188844 27.95460661 84.63476981 27.93359375 94.09765625 C23.36485766 94.13245473 19.1269656 93.928904 14.62109375 93.16015625 C-15.55675735 88.04847507 -51.59643567 88.74746789 -79.93530273 101.41259766 C-82.06640625 102.09765625 -82.06640625 102.09765625 -85.06640625 101.09765625 C-83.31060371 98.5893669 -81.7497559 97.27809781 -78.7734375 96.4921875 C-76.88194648 96.17284486 -74.98698935 95.87366868 -73.08984375 95.58984375 C-70.20851461 95.12079017 -67.50184536 94.44128116 -64.69140625 93.66015625 C-48.91188314 89.76004713 -33.51450828 88.82216373 -17.31640625 88.84765625 C-16.08028091 88.84881943 -16.08028091 88.84881943 -14.81918335 88.8500061 C-6.1396597 88.8736331 2.53026828 89.04842563 11.19921875 89.48828125 C11.87716492 89.51815125 12.55511108 89.54802124 13.25360107 89.57879639 C17.9098343 89.84940786 21.27663339 90.76709615 25.93359375 92.09765625 C25.93359375 66.35765625 25.93359375 40.61765625 25.93359375 14.09765625 C19.66359375 13.76765625 13.39359375 13.43765625 6.93359375 13.09765625 C5.93359375 12.09765625 5.93359375 12.09765625 5.8359375 9.8125 C5.84753906 8.89597656 5.85914063 7.97945312 5.87109375 7.03515625 C5.88011719 6.11605469 5.88914062 5.19695312 5.8984375 4.25 C5.91003906 3.53972656 5.92164063 2.82945312 5.93359375 2.09765625 C3.29359375 2.09765625 0.65359375 2.09765625 -2.06640625 2.09765625 C-2.06640625 22.55765625 -2.06640625 43.01765625 -2.06640625 64.09765625 C-8.00640625 64.09765625 -13.94640625 64.09765625 -20.06640625 64.09765625 C-20.06640625 63.76765625 -20.06640625 63.43765625 -20.06640625 63.09765625 C-12.14640625 62.60265625 -12.14640625 62.60265625 -4.06640625 62.09765625 C-4.0413501 60.25502197 -4.01629395 58.4123877 -3.99047852 56.51391602 C-3.90672323 50.43895809 -3.81845169 44.36407907 -3.72706699 38.2892313 C-3.6718046 34.60455435 -3.61837946 30.91986952 -3.5690918 27.23510742 C-3.52149693 23.68187784 -3.46915618 20.1287475 -3.4134655 16.57563591 C-3.39301975 15.21722814 -3.3743104 13.85879313 -3.35733223 12.5003376 C-3.33333748 10.6037592 -3.30270293 8.70726826 -3.27172852 6.81079102 C-3.25618423 5.72935318 -3.24063995 4.64791534 -3.22462463 3.53370667 C-3.00433641 0.14198187 -3.00433641 0.14198187 0 0 Z " fill="#FFFFFF" transform="translate(541.06640625,161.90234375)"/>
<path d="M0 0 C6.08878192 0.54660656 11.28645567 1.92858526 17 4.0625 C18.16208984 4.48499023 18.16208984 4.48499023 19.34765625 4.91601562 C21.23450967 5.60320298 23.11766151 6.30054013 25 7 C22 8 22 8 19.375 7.0625 C15.73391958 5.91623394 12.91856197 5.87521592 9.1484375 6.02734375 C6.9375519 5.99920521 5.12729092 5.5681498 3 5 C3.03552979 5.72550049 3.07105957 6.45100098 3.10766602 7.19848633 C4.08774061 28.1989161 3.82609313 49.00112463 3 70 C3.66 70 4.32 70 5 70 C5.33 70.66 5.66 71.32 6 72 C7.28583984 71.94779297 7.28583984 71.94779297 8.59765625 71.89453125 C19.08902652 71.64614481 19.08902652 71.64614481 22.75 73.4375 C26.82470276 75.39649171 30.53567236 75.70642743 35 76 C35.33 76.99 35.66 77.98 36 79 C37.32 79 38.64 79 40 79 C40 79.66 40 80.32 40 81 C40.99 81.495 40.99 81.495 42 82 C37.59414399 81.13710193 33.19265992 80.27365326 28.81640625 79.26953125 C21.36956486 77.57354541 14.01165289 76.41194722 6.42163086 75.64648438 C1.09600663 75.09600663 1.09600663 75.09600663 0 74 C-0.12933367 71.80807538 -0.18859284 69.61199885 -0.22119141 67.41650391 C-0.2326973 66.72867325 -0.24420319 66.04084259 -0.25605774 65.33216858 C-0.29288817 63.0470127 -0.32244958 60.76182883 -0.3515625 58.4765625 C-0.37466813 56.89333694 -0.39805836 55.31011551 -0.42172241 53.72689819 C-0.47024996 50.402929 -0.51516746 47.07893501 -0.55761719 43.75488281 C-0.61236573 39.49191158 -0.67620763 35.2291342 -0.74279213 30.96633339 C-0.79285908 27.69447592 -0.83798859 24.42256457 -0.88163376 21.15061569 C-0.90321649 19.57889989 -0.92636641 18.00720481 -0.9510994 16.43553543 C-0.98496291 14.23781728 -1.01216081 12.04011481 -1.03759766 9.84228516 C-1.05456696 8.59065582 -1.07153625 7.33902649 -1.08901978 6.04946899 C-1 3 -1 3 0 0 Z " fill="#FFFFFF" transform="translate(346,142)"/>
<path d="M0 0 C10.42035472 3.0208349 21.95924984 11.93887477 28 21 C30.64012347 19.96280864 31.9132487 19.1167806 33.625 16.8125 C36.7420723 13.12123017 40.35803508 10.51708227 44.25 7.6875 C44.99507813 7.13771484 45.74015625 6.58792969 46.5078125 6.02148438 C48.33429617 4.67503808 50.16500133 3.33480532 52 2 C52.99 2.495 52.99 2.495 54 3 C53.13117188 3.66386719 52.26234375 4.32773438 51.3671875 5.01171875 C50.2030743 5.90357967 49.03901467 6.7955105 47.875 7.6875 C47.02035156 8.34008789 47.02035156 8.34008789 46.1484375 9.00585938 C38.6282086 14.5359403 38.6282086 14.5359403 32.3125 21.3125 C31.549375 22.199375 30.78625 23.08625 30 24 C29.01 24 28.02 24 27 24 C26.01 24.495 26.01 24.495 25 25 C25 24.01 25 23.02 25 22 C23.35 22.33 21.7 22.66 20 23 C20 23.66 20 24.32 20 25 C20.886875 25.268125 21.77375 25.53625 22.6875 25.8125 C25.76877548 26.91710819 28.26221405 28.22849144 31 30 C31 29.34 31 28.68 31 28 C32.0209375 27.87625 32.0209375 27.87625 33.0625 27.75 C35.75081943 27.06362057 37.30696843 26.30223812 39.625 24.875 C40.73875 24.25625 41.8525 23.6375 43 23 C44.485 23.495 44.485 23.495 46 24 C43.63677436 25.54241063 41.26228266 27.05815428 38.875 28.5625 C38.20984375 29.00013672 37.5446875 29.43777344 36.859375 29.88867188 C33.58306369 31.92833627 31.72160842 33.01229017 27.7890625 32.9453125 C25.01456799 32.00493761 22.92729859 30.94067035 20.5 29.3125 C7.47158954 21.20851849 -7.83358247 16.23176714 -23 14 C-23 13.67 -23 13.34 -23 13 C-16.46615702 12.75430908 -10.57530981 13.67684275 -4.1875 15 C-2.32730691 15.37739353 -0.46664757 15.75249816 1.39453125 16.125 C2.20768799 16.29257812 3.02084473 16.46015625 3.85864258 16.6328125 C6.13070556 17.08450374 6.13070556 17.08450374 9 17 C9.495 17.99 9.495 17.99 10 19 C12.02463255 19.65213292 12.02463255 19.65213292 14 20 C14 19.01 14 18.02 14 17 C14.99 17 15.98 17 17 17 C15.25482535 11.64769855 13.71256155 9.2355419 8.75976562 6.54101562 C8.11716797 6.21810547 7.47457031 5.89519531 6.8125 5.5625 C6.15830078 5.21251953 5.50410156 4.86253906 4.83007812 4.50195312 C3.2298678 3.64928631 1.61619122 2.82197308 0 2 C0 1.34 0 0.68 0 0 Z " fill="#FFFFFF" transform="translate(410,241)"/>
<path d="M0 0 C0.02312484 9.50074325 0.0409158 19.00147688 0.05181217 28.50224209 C0.05704069 32.91337004 0.06413777 37.3244788 0.07543945 41.7355957 C0.08626944 45.98901115 0.09227707 50.24240809 0.09487724 54.49583626 C0.09673129 56.12221633 0.10035152 57.74859534 0.10573006 59.37496758 C0.11294198 61.64510193 0.11399088 63.91515885 0.11352539 66.18530273 C0.115746 67.47991928 0.11796661 68.77453583 0.12025452 70.10838318 C0 73 0 73 -1 74 C-2.79494283 74.31022771 -4.59949269 74.5651661 -6.40625 74.796875 C-8.10007812 75.02467651 -8.10007812 75.02467651 -9.828125 75.25708008 C-11.03984375 75.41974365 -12.2515625 75.58240723 -13.5 75.75 C-22.61098136 77.0156143 -31.34138295 78.5498325 -40.06054688 81.51269531 C-44.73811036 83.08729655 -44.73811036 83.08729655 -48 82 C-41.95475803 79.20760322 -35.83800123 77.33087763 -29.375 75.8125 C-28.67125244 75.64588867 -27.96750488 75.47927734 -27.24243164 75.30761719 C-18.69091642 73.36540527 -10.87628373 73 -2 73 C-2 49.24 -2 25.48 -2 1 C-4.97 1.99 -7.94 2.98 -11 4 C-13.22608948 4.59496842 -15.4551136 5.17911228 -17.6875 5.75 C-25.33342315 7.88452162 -32.05318376 11.24154015 -39 15 C-38.67 15.99 -38.34 16.98 -38 18 C-40.31 18.33 -42.62 18.66 -45 19 C-45.33 20.65 -45.66 22.3 -46 24 C-46.556875 24.13535156 -47.11375 24.27070313 -47.6875 24.41015625 C-54.17270986 26.2395989 -58.25391536 29.27977959 -63 34 C-63 31 -63 31 -60.6484375 28.6171875 C-59.5675092 27.69106467 -58.47547492 26.7778092 -57.375 25.875 C-56.78960449 25.38999023 -56.20420898 24.90498047 -55.60107422 24.40527344 C-42.60677401 13.84805268 -28.28590645 6.17552835 -12.375 1 C-11.71193848 0.77989258 -11.04887695 0.55978516 -10.36572266 0.33300781 C-6.46530142 -0.86081504 -3.9230176 -0.93944403 0 0 Z " fill="#FFFFFF" transform="translate(532,143)"/>
<path d="M0 0 C0.33 0 0.66 0 1 0 C1.01213028 0.99906372 1.01213028 0.99906372 1.02450562 2.01831055 C1.11138851 9.02800763 1.21091493 16.03744865 1.31738281 23.046875 C1.35537611 25.65360166 1.39027728 28.26037547 1.421875 30.8671875 C1.65159135 51.51404282 1.65159135 51.51404282 4 72 C7.40745188 72.76286236 9.64998162 73.11667279 13 72 C13 72.66 13 73.32 13 74 C13.7434668 73.93941406 14.48693359 73.87882812 15.25292969 73.81640625 C40.37807117 71.80329784 40.37807117 71.80329784 52.4375 71.8125 C53.23961914 71.81185547 54.04173828 71.81121094 54.86816406 71.81054688 C58.69404487 71.84703122 62.28093166 72.07577825 66 73 C66 73.66 66 74.32 66 75 C67.68029297 74.94779297 67.68029297 74.94779297 69.39453125 74.89453125 C70.86717251 74.86639161 72.33982998 74.83909163 73.8125 74.8125 C74.55048828 74.78736328 75.28847656 74.76222656 76.04882812 74.73632812 C81.54974762 74.66165501 81.54974762 74.66165501 84.01171875 76.51171875 C84.33785156 77.00285156 84.66398437 77.49398437 85 78 C83.741875 78.020625 82.48375 78.04125 81.1875 78.0625 C80.47980469 78.07410156 79.77210938 78.08570313 79.04296875 78.09765625 C77 78 77 78 74 77 C64.27631708 75.70350894 54.41675103 75.76329845 44.625 75.75 C43.83673828 75.74766357 43.04847656 75.74532715 42.23632812 75.74291992 C30.63455178 75.72998201 19.39672263 76.38780728 7.9375 78.34375 C4 79 4 79 0 79 C0 52.93 0 26.86 0 0 Z " fill="#FFFFFF" transform="translate(310,176)"/>
<path d="M0 0 C0.495 0.495 0.495 0.495 1 1 C3.3760773 1.14770776 5.72680528 1.23497738 8.10546875 1.28125 C9.18070549 1.30886414 9.18070549 1.30886414 10.27766418 1.33703613 C12.58085694 1.39595004 14.88412747 1.44862723 17.1875 1.5 C19.47301123 1.55156557 21.75842822 1.60463705 24.04377747 1.66296387 C25.46725469 1.69927914 26.89083586 1.73178531 28.3144989 1.7598877 C32.29464086 1.8611628 36.09019805 2.24985254 40 3 C40 3.33 40 3.66 40 4 C38.68620361 3.98428955 37.37240723 3.9685791 36.01879883 3.95239258 C31.03693029 3.89714733 26.05508731 3.86331436 21.07299805 3.83520508 C18.93688369 3.82032985 16.80079865 3.80002342 14.66479492 3.77368164 C-4.9196829 3.5386126 -24.28766174 4.76255391 -43 11 C-44.39439664 11.06665376 -45.79169875 11.08538199 -47.1875 11.0625 C-49.0746875 11.0315625 -49.0746875 11.0315625 -51 11 C-51.226875 11.60199219 -51.45375 12.20398438 -51.6875 12.82421875 C-53.38237442 15.63387665 -55.06415778 16.40005265 -58 17.8125 C-58.886875 18.25207031 -59.77375 18.69164062 -60.6875 19.14453125 C-61.450625 19.42683594 -62.21375 19.70914062 -63 20 C-63.66 19.67 -64.32 19.34 -65 19 C-56.55172414 12 -56.55172414 12 -53 12 C-53 10.68 -53 9.36 -53 8 C-52.16662109 8.27505371 -52.16662109 8.27505371 -51.31640625 8.55566406 C-46.83370543 9.41554133 -42.3771626 7.77360004 -38 6.75 C-37.00226563 6.53214844 -36.00453125 6.31429687 -34.9765625 6.08984375 C-34.01492188 5.86941406 -33.05328125 5.64898437 -32.0625 5.421875 C-31.18722656 5.22174805 -30.31195313 5.02162109 -29.41015625 4.81542969 C-26.80937484 3.93550567 -25.09330294 2.75453755 -23 1 C-22.505 1.495 -22.505 1.495 -22 2 C-14.33226484 2.39660699 -7.61756543 -0.45705393 0 0 Z " fill="#FFFFFF" transform="translate(511,248)"/>
<path d="M0 0 C2.64 0 5.28 0 8 0 C8 3.96 8 7.92 8 12 C5 9 5 9 4 7 C3.07863963 9.76408112 2.85695747 11.50177243 2.81054688 14.36035156 C2.79382935 15.23846497 2.77711182 16.11657837 2.7598877 17.02130127 C2.74631226 17.9681781 2.73273682 18.91505493 2.71875 19.890625 C2.70034058 20.86860046 2.68193115 21.84657593 2.66296387 22.85418701 C2.60419088 25.98606324 2.55142313 29.117995 2.5 32.25 C2.43206942 36.35948294 2.3583024 40.46880418 2.28125 44.578125 C2.26767456 45.51690491 2.25409912 46.45568481 2.2401123 47.4229126 C2.14719933 52.37338289 1.82700965 57.11662519 1 62 C0.67 62 0.34 62 0 62 C0 41.54 0 21.08 0 0 Z " fill="#FFFFFF" transform="translate(539,164)"/>
<path d="M0 0 C0 0.99 0 1.98 0 3 C-1.2375 3.12375 -2.475 3.2475 -3.75 3.375 C-6.10268698 3.6102687 -7.70908767 3.83238826 -9.76953125 5.01953125 C-13.06782028 6.4693921 -16.39429282 6.25470468 -19.9375 6.3125 C-28.83509225 6.64391525 -37.51942803 8.28557164 -44.55859375 14.12109375 C-47.2026745 16.1559783 -48.53790512 16.5545018 -51.8125 16.75 C-52.60269531 16.80671875 -53.39289063 16.8634375 -54.20703125 16.921875 C-54.79871094 16.94765625 -55.39039063 16.9734375 -56 17 C-44.76059923 4.12784844 -16.10904318 -0.55126003 0 0 Z " fill="#FFFFFF" transform="translate(520,226)"/>
<path d="M0 0 C1.24893539 -0.00524185 1.24893539 -0.00524185 2.52310181 -0.0105896 C13.23110853 -0.03549286 23.54788474 0.58330101 34.125 2.3125 C34.125 2.6425 34.125 2.9725 34.125 3.3125 C29.58405292 3.38574108 25.21921033 3.33682544 20.70703125 2.8203125 C-6.48404202 -0.0060088 -37.49311587 1.34243088 -62.74389648 12.62744141 C-64.875 13.3125 -64.875 13.3125 -67.875 12.3125 C-66.11919746 9.80421065 -64.55834965 8.49294156 -61.58203125 7.70703125 C-59.69054023 7.38768861 -57.7955831 7.08851243 -55.8984375 6.8046875 C-53.01710836 6.33563392 -50.31043911 5.65612491 -47.5 4.875 C-31.69112508 0.96763621 -16.22892623 0.02195549 0 0 Z " fill="#FFFFFF" transform="translate(523.875,250.6875)"/>
<path d="M0 0 C-0.66 0.33 -1.32 0.66 -2 1 C-2 1.66 -2 2.32 -2 3 C-3.11117188 3.49628906 -4.22234375 3.99257812 -5.3671875 4.50390625 C-13.07938123 8.00787191 -20.27689362 11.3957704 -26.921875 16.75 C-29.4494593 18.27035146 -31.10040774 18.24332243 -34 18 C-32.48203118 13.44609355 -29.02221818 11.43237966 -25 9 C-21.5 8.125 -21.5 8.125 -19 8 C-19 6.68 -19 5.36 -19 4 C-18.0409375 3.8453125 -18.0409375 3.8453125 -17.0625 3.6875 C-14.42487647 3.09538043 -12.04128428 2.33691948 -9.5 1.4375 C-6.20952811 0.30588529 -3.51813935 -0.3404651 0 0 Z " fill="#FFFFFF" transform="translate(486,224)"/>
<path d="M0 0 C2.64 0 5.28 0 8 0 C8 20.46 8 40.92 8 62 C7.67 62 7.34 62 7 62 C6.07299817 48.22740136 5.91483284 34.51535442 6.03710938 20.71875 C6.04133911 20.03981689 6.04556885 19.36088379 6.04992676 18.66137695 C6.06179002 16.79896071 6.07953593 14.93658462 6.09765625 13.07421875 C6.0159485 10.50205874 5.7647891 8.43889438 5 6 C4.319375 6.99 4.319375 6.99 3.625 8 C3.08875 8.66 2.5525 9.32 2 10 C1.34 10 0.68 10 0 10 C0 6.7 0 3.4 0 0 Z " fill="#FFFFFF" transform="translate(331,164)"/>
<path d="M0 0 C0.66 0 1.32 0 2 0 C2 0.99 2 1.98 2 3 C1.67 3.33 1.34 3.66 1 4 C1.66 4.33 2.32 4.66 3 5 C2.57847656 5.45890625 2.15695312 5.9178125 1.72265625 6.390625 C0.90087891 7.31101563 0.90087891 7.31101563 0.0625 8.25 C-0.75541016 9.15492188 -0.75541016 9.15492188 -1.58984375 10.078125 C-3.06212799 12.08467305 -3.57529189 13.57002449 -4 16 C-4.86625 16.12375 -4.86625 16.12375 -5.75 16.25 C-8.71569306 17.23856435 -10.00683627 18.60820353 -12 21 C-12.28875 21.845625 -12.5775 22.69125 -12.875 23.5625 C-14.44700858 26.96851859 -16.62647224 27.60658636 -20 29 C-16.34947325 18.64091361 -7.52307912 7.9366099 0 0 Z " fill="#FFFFFF" transform="translate(466,177)"/>
<path d="M0 0 C6.25644413 -0.3830476 10.20764245 0.41412609 16 3 C18.99042608 3.51840452 21.97275357 3.80092937 25 4 C25.495 5.485 25.495 5.485 26 7 C27.32 7 28.64 7 30 7 C30 7.66 30 8.32 30 9 C30.66 9.33 31.32 9.66 32 10 C27.59414399 9.13710193 23.19265992 8.27365326 18.81640625 7.26953125 C9.58701687 5.16757783 0.40129508 3.96744562 -9 3 C-9 2.67 -9 2.34 -9 2 C-6.03 2 -3.06 2 0 2 C0 1.34 0 0.68 0 0 Z " fill="#FFFFFF" transform="translate(356,214)"/>
<path d="M0 0 C5.26913072 0.47901188 9.82931705 1.4694977 14.8125 3.234375 C17.84071037 4.29424863 20.90846909 5.1448957 24 6 C24 6.66 24 7.32 24 8 C26.475 8.495 26.475 8.495 29 9 C29 9.66 29 10.32 29 11 C31.475 11.495 31.475 11.495 34 12 C33.67 13.32 33.34 14.64 33 16 C28.05690304 13.96572548 23.41951756 11.654699 18.75 9.0625 C12.68311938 5.7503972 6.60654579 3.08772341 0 1 C0 0.67 0 0.34 0 0 Z " fill="#FFFFFF" transform="translate(388,224)"/>
<path d="M0 0 C6.53384298 -0.24569092 12.42469019 0.67684275 18.8125 2 C20.67269309 2.37739353 22.53335243 2.75249816 24.39453125 3.125 C25.20768799 3.29257812 26.02084473 3.46015625 26.85864258 3.6328125 C29.13070556 4.08450374 29.13070556 4.08450374 32 4 C34.6875 6.375 34.6875 6.375 37 9 C37 9.66 37 10.32 37 11 C37.9075 11.2475 38.815 11.495 39.75 11.75 C43.10351489 13.03981342 44.67708236 14.31971042 47 17 C43.02849519 15.48845712 39.29895921 13.6494796 35.5 11.75 C24.48234984 6.43423302 12.1203895 2.7115821 0 1 C0 0.67 0 0.34 0 0 Z " fill="#FFFFFF" transform="translate(387,254)"/>
<path d="M0 0 C4.49435929 1.41251292 6.7115777 3.7115777 10 7 C11.0725 7.53625 12.145 8.0725 13.25 8.625 C14.1575 9.07875 15.065 9.5325 16 10 C16.33 10.99 16.66 11.98 17 13 C19.75925321 13.89888857 19.75925321 13.89888857 23 14 C25.66594602 12.17966893 25.66594602 12.17966893 27.875 9.5625 C28.65617187 8.71816406 29.43734375 7.87382812 30.2421875 7.00390625 C30.82226562 6.34261719 31.40234375 5.68132812 32 5 C32.66 5.33 33.32 5.66 34 6 C33.21753906 6.77085937 32.43507813 7.54171875 31.62890625 8.3359375 C30.60663943 9.34882573 29.58451119 10.36185384 28.5625 11.375 C27.7880957 12.13683594 27.7880957 12.13683594 26.99804688 12.9140625 C24.142867 15.68568936 24.142867 15.68568936 22 19 C20.68 19 19.36 19 18 19 C16.68359375 17.56640625 16.68359375 17.56640625 15.4375 15.5625 C12.09815298 10.73421732 7.90682298 7.45683723 3.29296875 3.8828125 C1 2 1 2 0 0 Z " fill="#FFFFFF" transform="translate(419,239)"/>
<path d="M0 0 C0.33 0.66 0.66 1.32 1 2 C1.66 2.33 2.32 2.66 3 3 C2.67 3.763125 2.34 4.52625 2 5.3125 C0.82563314 7.99069135 0.82563314 7.99069135 1 11 C-1.97 10.505 -1.97 10.505 -5 10 C-6.50325413 12.9320227 -7.85935389 15.89526176 -9.125 18.9375 C-9.65480469 20.18853516 -9.65480469 20.18853516 -10.1953125 21.46484375 C-11.03905252 24.1230344 -11.14867148 26.22975484 -11 29 C-11.99 28.34 -12.98 27.68 -14 27 C-13.67 25.35 -13.34 23.7 -13 22 C-12.34 22 -11.68 22 -11 22 C-10.94392578 21.11248047 -10.94392578 21.11248047 -10.88671875 20.20703125 C-10.49142559 15.45576254 -10.12975416 11.80041577 -7 8 C-5.7315625 7.2575 -5.7315625 7.2575 -4.4375 6.5 C-1.49037839 4.6863867 -0.96727616 3.25356528 0 0 Z " fill="#FFFFFF" transform="translate(454,197)"/>
<path d="M0 0 C12.25713519 -0.50836045 23.91909071 1.03102649 36 3 C36 3.33 36 3.66 36 4 C29.58493685 4.1057428 23.27019082 3.98445711 16.875 3.4375 C11.10987501 2.97629 5.71444345 3.14415017 0 4 C0 2.68 0 1.36 0 0 Z " fill="#FFFFFF" transform="translate(340,226)"/>
<path d="M0 0 C-0.51908936 0.19110352 -1.03817871 0.38220703 -1.57299805 0.57910156 C-3.94819875 1.45976717 -6.31776844 2.35472747 -8.6875 3.25 C-9.91243164 3.70052734 -9.91243164 3.70052734 -11.16210938 4.16015625 C-15.8048365 5.92702406 -19.12834626 7.83724061 -23 11 C-25.45703125 11.609375 -25.45703125 11.609375 -27.8125 11.75 C-28.60269531 11.80671875 -29.39289063 11.8634375 -30.20703125 11.921875 C-31.09455078 11.96054688 -31.09455078 11.96054688 -32 12 C-26.13509827 5.16099695 -8.85848909 -2.57750651 0 0 Z " fill="#FFFFFF" transform="translate(496,231)"/>
<path d="M0 0 C0.66 0 1.32 0 2 0 C1.67 1.32 1.34 2.64 1 4 C1.66 4.33 2.32 4.66 3 5 C1.68 6.32 0.36 7.64 -1 9 C-1.99 8.67 -2.98 8.34 -4 8 C-4 8.66 -4 9.32 -4 10 C-7.49490421 9.35279552 -10.01166882 7.88736706 -13 6 C-13.66 5.67 -14.32 5.34 -15 5 C-15 4.34 -15 3.68 -15 3 C-13.35 2.67 -11.7 2.34 -10 2 C-10 2.99 -10 3.98 -10 5 C-5.80981614 5.39827408 -5.80981614 5.39827408 -2.1875 3.625 C-0.93012827 1.99913203 -0.93012827 1.99913203 0 0 Z " fill="#FFFFFF" transform="translate(445,261)"/>
<path d="M0 0 C0 0.66 0 1.32 0 2 C-2.31 2.33 -4.62 2.66 -7 3 C-7.33 4.65 -7.66 6.3 -8 8 C-8.556875 8.13535156 -9.11375 8.27070313 -9.6875 8.41015625 C-16.17270986 10.2395989 -20.25391536 13.27977959 -25 18 C-25 17.01 -25 16.02 -25 15 C-22.96050093 13.04302401 -20.94190559 11.26948267 -18.75 9.5 C-18.16347656 9.01402344 -17.57695312 8.52804688 -16.97265625 8.02734375 C-7.23922854 0 -7.23922854 0 0 0 Z " fill="#FFFFFF" transform="translate(494,159)"/>
<path d="M0 0 C-0.53069061 3.82097239 -1.49701566 6.06171403 -4 9 C-5.32 8.67 -6.64 8.34 -8 8 C-8 6.35 -8 4.7 -8 3 C-8.66 3 -9.32 3 -10 3 C-10 2.34 -10 1.68 -10 1 C-6.78548731 -0.60725635 -3.56387464 -0.05748185 0 0 Z " fill="#FFFFFF" transform="translate(430,233)"/>
<path d="M0 0 C0.56332031 0.24105469 1.12664062 0.48210937 1.70703125 0.73046875 C-2.80550357 5.61904814 -2.80550357 5.61904814 -5.48046875 6.23046875 C-6.07859375 6.39546875 -6.67671875 6.56046875 -7.29296875 6.73046875 C-7.60234375 7.51421875 -7.91171875 8.29796875 -8.23046875 9.10546875 C-9.58318438 12.44747208 -11.05603962 13.27385064 -14.29296875 14.73046875 C-14.95296875 14.40046875 -15.61296875 14.07046875 -16.29296875 13.73046875 C-15.65359375 13.48296875 -15.01421875 13.23546875 -14.35546875 12.98046875 C-13.33453125 12.36171875 -13.33453125 12.36171875 -12.29296875 11.73046875 C-12.174375 11.13363281 -12.05578125 10.53679687 -11.93359375 9.921875 C-11.03709347 6.85518807 -9.34188241 5.53203302 -6.98046875 3.41796875 C-6.20058594 2.69996094 -5.42070312 1.98195312 -4.6171875 1.2421875 C-2.29296875 -0.26953125 -2.29296875 -0.26953125 0 0 Z " fill="#FFFFFF" transform="translate(480.29296875,168.26953125)"/>
<path d="M0 0 C0.66 0.99 1.32 1.98 2 3 C1.01 4.485 1.01 4.485 0 6 C-0.33 6.66 -0.66 7.32 -1 8 C-2.32 7.67 -3.64 7.34 -5 7 C-5.226875 7.804375 -5.45375 8.60875 -5.6875 9.4375 C-6.3371875 10.7059375 -6.3371875 10.7059375 -7 12 C-9.625 12.8125 -9.625 12.8125 -12 13 C-12.66 11.68 -13.32 10.36 -14 9 C-12.68 9.33 -11.36 9.66 -10 10 C-9.52949219 9.44570313 -9.05898438 8.89140625 -8.57421875 8.3203125 C-7.64029297 7.23363281 -7.64029297 7.23363281 -6.6875 6.125 C-6.07261719 5.40570313 -5.45773437 4.68640625 -4.82421875 3.9453125 C-3 2 -3 2 0 0 Z " fill="#FFFFFF" transform="translate(450,254)"/>
<path d="M0 0 C0.33 0 0.66 0 1 0 C1 7.26 1 14.52 1 22 C-4.94 22 -10.88 22 -17 22 C-17 21.67 -17 21.34 -17 21 C-11.72 20.67 -6.44 20.34 -1 20 C-1.020625 17.81375 -1.04125 15.6275 -1.0625 13.375 C-1.10589503 8.77512694 -0.88277755 4.51815281 0 0 Z " fill="#FFFFFF" transform="translate(538,204)"/>
<path d="M0 0 C10.14423967 1.86980689 18.27407757 6.7775847 27 12 C24 13 24 13 22.0625 12.2578125 C21.381875 11.88398438 20.70125 11.51015625 20 11.125 C17.63081282 9.84169028 15.57521017 8.85840339 13 8 C13 7.34 13 6.68 13 6 C12.31292969 5.96261719 11.62585938 5.92523438 10.91796875 5.88671875 C10.01691406 5.82097656 9.11585938 5.75523437 8.1875 5.6875 C6.84751953 5.60048828 6.84751953 5.60048828 5.48046875 5.51171875 C2.67328075 4.93259808 1.69302154 4.2779858 0 2 C0 1.34 0 0.68 0 0 Z " fill="#FFFFFF" transform="translate(360,147)"/>
<path d="M0 0 C0.33 0.66 0.66 1.32 1 2 C2.4540625 2.3403125 2.4540625 2.3403125 3.9375 2.6875 C4.948125 3.120625 5.95875 3.55375 7 4 C8.375 7.625 8.375 7.625 9 11 C7.02 11 5.04 11 3 11 C2.67 8.36 2.34 5.72 2 3 C0.68 2.67 -0.64 2.34 -2 2 C-1.34 1.34 -0.68 0.68 0 0 Z " fill="#FFFFFF" transform="translate(422,197)"/>
<path d="M0 0 C2.05279359 4.10558718 2.2216942 5.80206685 2.125 10.25 C2.10695313 11.32765625 2.08890625 12.4053125 2.0703125 13.515625 C2.04710937 14.33546875 2.02390625 15.1553125 2 16 C1.030625 15.855625 0.06125 15.71125 -0.9375 15.5625 C-5.28052169 14.93952558 -9.63765234 14.46492141 -14 14 C-14 13.67 -14 13.34 -14 13 C-12.22925083 12.97294271 -10.45838289 12.95357805 -8.6875 12.9375 C-7.70136719 12.92589844 -6.71523438 12.91429687 -5.69921875 12.90234375 C-3 13 -3 13 0 14 C0 9.38 0 4.76 0 0 Z " fill="#FFFFFF" transform="translate(565,238)"/>
<path d="M0 0 C4.49435929 1.41251292 6.7115777 3.7115777 10 7 C11.0725 7.53625 12.145 8.0725 13.25 8.625 C14.1575 9.07875 15.065 9.5325 16 10 C16.33 10.99 16.66 11.98 17 13 C19.50447516 14.21869929 19.50447516 14.21869929 22 15 C21.67 15.66 21.34 16.32 21 17 C18.4909447 15.96177022 17.16815013 15.233948 15.5625 13 C14.14345458 10.82736646 14.14345458 10.82736646 11.703125 10.12890625 C8.60329752 8.83432512 6.66070014 7.19742252 4.1875 4.9375 C3.39730469 4.22464844 2.60710937 3.51179687 1.79296875 2.77734375 C1.20128906 2.19082031 0.60960937 1.60429687 0 1 C0 0.67 0 0.34 0 0 Z " fill="#FFFFFF" transform="translate(419,239)"/>
<path d="M0 0 C8.23890406 -0.49433424 18.10817962 0.19414819 24.92578125 5.109375 C25.61027344 5.73328125 26.29476563 6.3571875 27 7 C18 5 9 3 0 1 C0 0.67 0 0.34 0 0 Z " fill="#FFFFFF" transform="translate(387,254)"/>
<path d="M0 0 C0.33 0 0.66 0 1 0 C1.3766974 4.39480305 0.23773307 6.29913377 -2 10 C-2.81060291 12.64485179 -3.38975726 15.29749644 -4 18 C-4.33 18.99 -4.66 19.98 -5 21 C-5.66 20.34 -6.32 19.68 -7 19 C-6.625 16.375 -6.625 16.375 -6 14 C-5.34 14 -4.68 14 -4 14 C-3.94392578 13.11248047 -3.94392578 13.11248047 -3.88671875 12.20703125 C-3.48926468 7.42978922 -3.02896228 3.91240961 0 0 Z " fill="#FFFFFF" transform="translate(447,205)"/>
<path d="M0 0 C1.66611905 -0.042721 3.33382885 -0.04063832 5 0 C6 1 6 1 6.09765625 2.84765625 C6.06510417 4.8984375 6.03255208 6.94921875 6 9 C5.34 7.68 4.68 6.36 4 5 C2.68 6.32 1.36 7.64 0 9 C0 6.03 0 3.06 0 0 Z " fill="#FFFFFF" transform="translate(332,165)"/>
<path d="M0 0 C0.66 0.33 1.32 0.66 2 1 C0.71034824 2.37562854 -0.62689293 3.70766393 -2 5 C-2.66 5 -3.32 5 -4 5 C-4.33 6.32 -4.66 7.64 -5 9 C-6.66666667 9 -8.33333333 9 -10 9 C-9.77734375 7.17578125 -9.77734375 7.17578125 -9 5 C-7.00390625 3.48046875 -7.00390625 3.48046875 -4.5625 2.1875 C-3.35787109 1.52814453 -3.35787109 1.52814453 -2.12890625 0.85546875 C-1.42636719 0.57316406 -0.72382813 0.29085937 0 0 Z " fill="#FFFFFF" transform="translate(461,247)"/>
<path d="M0 0 C3.27066566 -0.08706892 6.54103365 -0.14041241 9.8125 -0.1875 C10.74126953 -0.21263672 11.67003906 -0.23777344 12.62695312 -0.26367188 C13.9659668 -0.27817383 13.9659668 -0.27817383 15.33203125 -0.29296875 C16.56530151 -0.31653442 16.56530151 -0.31653442 17.82348633 -0.34057617 C20.47502434 0.07433079 21.33263592 0.95529751 23 3 C21.741875 3.020625 20.48375 3.04125 19.1875 3.0625 C18.47980469 3.07410156 17.77210938 3.08570313 17.04296875 3.09765625 C15 3 15 3 12 2 C9.94106379 1.77674186 7.87766347 1.59294241 5.8125 1.4375 C4.72582031 1.35371094 3.63914062 1.26992187 2.51953125 1.18359375 C1.68808594 1.12300781 0.85664063 1.06242188 0 1 C0 0.67 0 0.34 0 0 Z " fill="#FFFFFF" transform="translate(372,251)"/>
<path d="M0 0 C1.45047396 2.90094791 0.45356803 4.55972596 -0.4375 7.625 C-0.72496094 8.62789062 -1.01242187 9.63078125 -1.30859375 10.6640625 C-1.65083984 11.82035156 -1.65083984 11.82035156 -2 13 C-3.98 13 -5.96 13 -8 13 C-7.67 11.68 -7.34 10.36 -7 9 C-7 9.66 -7 10.32 -7 11 C-6.34 11 -5.68 11 -5 11 C-4.731875 10.113125 -4.46375 9.22625 -4.1875 8.3125 C-3.08289181 5.23122452 -1.77150856 2.73778595 0 0 Z " fill="#FFFFFF" transform="translate(445,206)"/>
<path d="M0 0 C3.83663072 1.34929464 6.65172569 3.07751025 9.8125 5.625 C10.99779297 6.57246094 10.99779297 6.57246094 12.20703125 7.5390625 C12.79871094 8.02117187 13.39039063 8.50328125 14 9 C13.01 9.495 13.01 9.495 12 10 C9.64018187 9.06421005 7.30368736 8.06652192 5 7 C5 6.01 5 5.02 5 4 C4.360625 3.896875 3.72125 3.79375 3.0625 3.6875 C2.381875 3.460625 1.70125 3.23375 1 3 C0.67 2.01 0.34 1.02 0 0 Z " fill="#FFFFFF" transform="translate(387,160)"/>
<path d="M0 0 C0.33 0 0.66 0 1 0 C1 4.29 1 8.58 1 13 C-2.3 13 -5.6 13 -9 13 C-9 12.34 -9 11.68 -9 11 C-10.98 11 -12.96 11 -15 11 C-15 10.67 -15 10.34 -15 10 C-9.47322267 9.80607799 -5.24385089 10.2520497 0 12 C0 8.04 0 4.08 0 0 Z " fill="#FFFFFF" transform="translate(567,242)"/>
<path d="M0 0 C7.23549488 0.68259386 7.23549488 0.68259386 10 4 C10.99 4.33 11.98 4.66 13 5 C13 4.34 13 3.68 13 3 C13.66 3 14.32 3 15 3 C14 6 14 6 12.265625 6.8671875 C9.04894915 7.05575126 7.44312895 5.83379819 4.75 4.125 C3.85796875 3.57070313 2.9659375 3.01640625 2.046875 2.4453125 C1.37140625 1.96835937 0.6959375 1.49140625 0 1 C0 0.67 0 0.34 0 0 Z " fill="#FFFFFF" transform="translate(428,266)"/>
<path d="M0 0 C0 1.32 0 2.64 0 4 C1.65 4.33 3.3 4.66 5 5 C1.79937313 6.60031344 -0.72271806 5.03173691 -4 4 C-4 3.34 -4 2.68 -4 2 C-5.32 2 -6.64 2 -8 2 C-8 1.34 -8 0.68 -8 0 C-4.94736336 -0.98120464 -3.05263664 -0.98120464 0 0 Z " fill="#FFFFFF" transform="translate(390,219)"/>
<path d="M0 0 C5.28 0 10.56 0 16 0 C15.67 0.99 15.34 1.98 15 3 C12.68690295 2.88658363 10.37449815 2.75896193 8.0625 2.625 C6.13083984 2.52058594 6.13083984 2.52058594 4.16015625 2.4140625 C2.59587891 2.20910156 2.59587891 2.20910156 1 2 C0.67 1.34 0.34 0.68 0 0 Z " fill="#FFFFFF" transform="translate(548,175)"/>
<path d="M0 0 C0.66 0.66 1.32 1.32 2 2 C1.86589799 7.63228453 -0.91282878 11.51164037 -4 16 C-5.21811255 12.34566236 -4.56632223 11.39369816 -3 8 C-2.67 7.34 -2.34 6.68 -2 6 C-1.34 6 -0.68 6 0 6 C0 4.02 0 2.04 0 0 Z " fill="#FFFFFF" transform="translate(436,217)"/>
<path d="M0 0 C1.98 0 3.96 0 6 0 C6.33 0.99 6.66 1.98 7 3 C8.32 3 9.64 3 11 3 C11 3.66 11 4.32 11 5 C11.66 5.33 12.32 5.66 13 6 C9.7 5.34 6.4 4.68 3 4 C3 3.34 3 2.68 3 2 C2.01 1.67 1.02 1.34 0 1 C0 0.67 0 0.34 0 0 Z " fill="#FFFFFF" transform="translate(375,218)"/>
<path d="M0 0 C1.98 1.65 3.96 3.3 6 5 C5.67 5.66 5.34 6.32 5 7 C2.9375 7.625 2.9375 7.625 1 8 C1 7.34 1 6.68 1 6 C0.01 5.67 -0.98 5.34 -2 5 C-1.34 3.35 -0.68 1.7 0 0 Z " fill="#FFFFFF" transform="translate(410,181)"/>
<path d="M0 0 C-4.34242429 4.34242429 -8.13551546 4.7444669 -14 5 C-11.71264299 2.38167493 -9.73180263 1.31372869 -6.4375 0.25 C-5.65246094 -0.01296875 -4.86742187 -0.2759375 -4.05859375 -0.546875 C-2 -1 -2 -1 0 0 Z " fill="#FFFFFF" transform="translate(478,238)"/>
<path d="M0 0 C8.57142857 0.85714286 8.57142857 0.85714286 12 3 C7.95858806 3.63394697 4.0934693 4.12404452 0 4 C0 2.68 0 1.36 0 0 Z " fill="#FFFFFF" transform="translate(348,144)"/>
<path d="M0 0 C3.96 1.98 3.96 1.98 8 4 C7.67 4.66 7.34 5.32 7 6 C6.21625 5.814375 5.4325 5.62875 4.625 5.4375 C2.02910225 4.74037734 2.02910225 4.74037734 0 6 C0 4.02 0 2.04 0 0 Z " fill="#FFFFFF" transform="translate(416,246)"/>
<path d="M0 0 C0.33 1.32 0.66 2.64 1 4 C0.01 4.495 0.01 4.495 -1 5 C-1.433125 6.2065625 -1.433125 6.2065625 -1.875 7.4375 C-3 10 -3 10 -5.125 11.3125 C-6.053125 11.6528125 -6.053125 11.6528125 -7 12 C-5.44298069 7.32894208 -2.91552627 3.91294315 0 0 Z " fill="#FFFFFF" transform="translate(455,193)"/>
<path d="M0 0 C0.598125 0.226875 1.19625 0.45375 1.8125 0.6875 C-2.8125 5.5625 -2.8125 5.5625 -6.1875 6.6875 C-5.78066505 4.32785727 -5.28935661 2.82815912 -3.875 0.875 C-2.1875 -0.3125 -2.1875 -0.3125 0 0 Z " fill="#FFFFFF" transform="translate(480.1875,168.3125)"/>
<path d="M0 0 C-1.91040052 0.8680908 -3.82860737 1.71901783 -5.75 2.5625 C-6.81734375 3.03816406 -7.8846875 3.51382813 -8.984375 4.00390625 C-11.98369837 4.9946154 -13.13421241 5.16161779 -16 4 C-4.57142857 -2.28571429 -4.57142857 -2.28571429 0 0 Z " fill="#FFFFFF" transform="translate(520,148)"/>
<path d="M0 0 C-1.2608012 1.03319813 -2.53403258 2.05124379 -3.8125 3.0625 C-4.87404297 3.91521484 -4.87404297 3.91521484 -5.95703125 4.78515625 C-6.63121094 5.18605469 -7.30539062 5.58695313 -8 6 C-8.99 5.67 -9.98 5.34 -11 5 C-4.75324675 -1.58441558 -4.75324675 -1.58441558 0 0 Z " fill="#FFFFFF" transform="translate(463,236)"/>
<path d="M0 0 C1.81495662 0.44850658 3.62693134 0.90909571 5.4375 1.375 C6.44683594 1.63023437 7.45617187 1.88546875 8.49609375 2.1484375 C11 3 11 3 12 5 C10.56344146 5.08131463 9.1255517 5.13933559 7.6875 5.1875 C6.48673828 5.23970703 6.48673828 5.23970703 5.26171875 5.29296875 C3 5 3 5 1.20703125 3.61328125 C0 2 0 2 0 0 Z " fill="#FFFFFF" transform="translate(360,147)"/>
<path d="M0 0 C1.36125 0.12375 1.36125 0.12375 2.75 0.25 C2.75 0.91 2.75 1.57 2.75 2.25 C-3.875 5.375 -3.875 5.375 -7.25 4.25 C-4.83923194 1.28290085 -3.90322061 0.30024774 0 0 Z " fill="#FFFFFF" transform="translate(463.25,258.75)"/>
<path d="M0 0 C-1.9668026 1.9668026 -3.5444659 2.9371637 -6 4.1875 C-6.70125 4.55230469 -7.4025 4.91710937 -8.125 5.29296875 C-8.74375 5.52628906 -9.3625 5.75960938 -10 6 C-10.66 5.67 -11.32 5.34 -12 5 C-7.65430977 1.45483165 -5.6329135 -0.14823457 0 0 Z " fill="#FFFFFF" transform="translate(458,262)"/>
<path d="M0 0 C2.31 0.33 4.62 0.66 7 1 C6.67 1.66 6.34 2.32 6 3 C4.68 3 3.36 3 2 3 C1.67 3.99 1.34 4.98 1 6 C-0.32 5.67 -1.64 5.34 -3 5 C-2.01 4.67 -1.02 4.34 0 4 C0 2.68 0 1.36 0 0 Z " fill="#FFFFFF" transform="translate(458,256)"/>
<path d="M0 0 C4.7517398 0.43197635 6.92000054 1.32769295 10 5 C5.75354935 5 3.61475228 3.18249194 0 1 C0 0.67 0 0.34 0 0 Z " fill="#FFFFFF" transform="translate(409,233)"/>
<path d="M0 0 C0.33 0.66 0.66 1.32 1 2 C3.02463255 2.65213292 3.02463255 2.65213292 5 3 C4.34 4.65 3.68 6.3 3 8 C2.67 8 2.34 8 2 8 C2 6.35 2 4.7 2 3 C0.68 2.67 -0.64 2.34 -2 2 C-1.34 1.34 -0.68 0.68 0 0 Z " fill="#FFFFFF" transform="translate(422,197)"/>
<path d="M0 0 C1.9375 1.125 1.9375 1.125 4 3 C4.75 6.1875 4.75 6.1875 5 9 C4.01 8.67 3.02 8.34 2 8 C1.26953125 6.15234375 1.26953125 6.15234375 0.8125 3.9375 C0.65394531 3.20402344 0.49539063 2.47054687 0.33203125 1.71484375 C0.22246094 1.14894531 0.11289062 0.58304688 0 0 Z " fill="#FFFFFF" transform="translate(422,191)"/>
</svg>